#!OML:ASF F:\VICON\USERDATA\INSTALL\rory3\rory3.ASF
:FULLY-SPECIFIED
:DEGREES
125
root 14.9025 17.7973 -11.1695 2.22244 -47.9482 -1.4293
lowerback 11.4343 1.17699 1.62231
upperback 0.920117 1.80525 1.03645
thorax -5.43274 0.851163 -0.115372
lowerneck -19.2539 -3.98774 -10.2664
upperneck 30.7392 -4.6796 6.29348
head 14.1424 -2.47042 3.45745
rclavicle 1.06847e-014 4.37326e-015
rhumerus -36.5278 -3.43581 -81.3104
rradius 30.1693
rwrist 6.72437
rhand -15.0314 12.3833
rfingers 7.12502
rthumb 11.1345 -17.3013
lclavicle 1.06847e-014 4.37326e-015
lhumerus -38.5447 1.37079 82.9697
lradius 37.3488
lwrist -3.48695
lhand -14.2987 24.8527
lfingers 7.12502
lthumb 11.841 54.4979
rfemur -3.7708 -1.82309 27.6663
rtibia 26.8054
rfoot -20.3347 -5.93113
rtoes 5.41047
lfemur -26.7233 0.543143 -18.0756
ltibia 46.6602
lfoot -14.2274 -3.39216
ltoes -10.8561
126
root 14.8757 17.7875 -11.1498 2.23758 -47.9837 -1.38277
lowerback 11.5043 1.15596 1.63711
upperback 0.840309 1.78376 1.04412
thorax -5.55598 0.839207 -0.114808
lowerneck -19.0506 -3.89431 -10.3487
upperneck 30.7173 -4.55597 6.34759
head 14.0783 -2.42361 3.51666
rclavicle -1.97791e-014 -8.34896e-015
rhumerus -36.6709 -3.26539 -81.2812
rradius 29.9128
rwrist 6.79728
rhand -15.2774 12.0816
rfingers 7.12502
rthumb 10.8972 -17.6156
lclavicle -1.97791e-014 -8.34896e-015
lhumerus -39.0308 1.5469 83.0334
lradius 36.36
lwrist -6.67979
lhand -18.624 22.3509
lfingers 7.12502
lthumb 7.66809 52.1919
rfemur -3.60459 -1.77699 27.6538
rtibia 26.6199
rfoot -20.3216 -5.95474
rtoes 5.57958
lfemur -26.9721 0.635134 -18.2863
ltibia 45.5224
lfoot -14.6811 -1.91144
ltoes -14.7297
127
root 14.8447 17.7829 -11.1309 2.22295 -48.0458 -1.32261
lowerback 11.2888 1.21773 1.7184
upperback 1.03801 1.85975 0.951915
thorax -5.22091 0.87703 -0.261365
lowerneck -19.1385 -3.93119 -10.2489
upperneck 30.4885 -4.64913 6.4436
head 14.0066 -2.43053 3.51556
rclavicle 1.43622e-014 7.55382e-015
rhumerus -36.4645 -3.36165 -81.3776
rradius 29.7907
rwrist 6.60509
rhand -15.4957 11.6269
rfingers 7.12502
rthumb 10.6866 -18.0814
lclavicle 1.43622e-014 7.55382e-015
lhumerus -38.7514 2.11288 82.5534
lradius 36.6895
lwrist -4.69826
lhand -15.1008 24.3183
lfingers 7.12502
lthumb 11.0675 54.0065
rfemur -3.42395 -1.62492 27.6524
rtibia 26.4768
rfoot -20.345 -6.03228
rtoes 5.68326
lfemur -27.2024 0.676562 -18.4399
ltibia 44.3008
lfoot -14.9344 -0.967993
ltoes -14.1297
128
root 14.8122 17.788 -11.1091 2.25204 -48.1377 -1.3083
lowerback 11.3971 1.25859 1.70887
upperback 0.954196 1.9168 0.931192
thorax -5.36823 0.903571 -0.290339
lowerneck -19.134 -3.91167 -10.2086
upperneck 30.5997 -4.6514 6.46486
head 14.0535 -2.427 3.52012
rclavicle -6.30147e-014 -5.56597e-015
rhumerus -36.6824 -3.314 -81.4225
rradius 29.6789
rwrist 6.45319
rhand -15.5154 11.4379
rfingers 7.12502
rthumb 10.6676 -18.2713
lclavicle -6.30147e-014 -5.56597e-015
lhumerus -39.1546 1.83695 82.6972
lradius 35.9959
lwrist -6.48202
lhand -17.7718 23.2165
lfingers 7.12502
lthumb 8.49059 53.0258
rfemur -3.23252 -1.6218 27.6291
rtibia 26.3109
rfoot -20.4367 -5.90784
rtoes 5.91789
lfemur -27.4775 0.602274 -18.5161
ltibia 42.9934
lfoot -15.0808 -0.0850513
ltoes -12.965
129
root 14.7809 17.792 -11.0857 2.23246 -48.1577 -1.25112
lowerback 11.2782 1.30658 1.86683
upperback 1.05998 1.98795 0.815702
thorax -5.17994 0.936072 -0.506237
lowerneck -19.2491 -3.96817 -10.232
upperneck 30.5945 -4.75067 6.58138
head 14.0915 -2.45371 3.55382
rclavicle 1.05256e-013 8.34896e-015
rhumerus -36.5617 -3.54542 -81.4487
rradius 29.463
rwrist 6.25836
rhand -15.3307 11.549
rfingers 7.12502
rthumb 10.8458 -18.1509
lclavicle 1.05256e-013 8.34896e-015
lhumerus -38.9333 1.82851 82.4278
lradius 35.9379
lwrist -4.76993
lhand -15.5758 24.0706
lfingers 7.12502
lthumb 10.6093 53.7828
rfemur -2.9718 -1.72467 27.5593
rtibia 26.039
rfoot -20.5147 -5.82227
rtoes 5.58548
lfemur -27.7408 0.394663 -18.6186
ltibia 41.6314
lfoot -15.0702 0.796334
ltoes -12.5689
130
root 14.7492 17.7919 -11.0611 2.08064 -48.176 -1.11375
lowerback 11.3689 1.31133 1.85193
upperback 1.06104 1.99379 0.803771
thorax -5.2293 0.938457 -0.513617
lowerneck -19.1835 -3.94819 -10.3514
upperneck 30.662 -4.69937 6.60307
head 14.1058 -2.44586 3.595
rclavicle -1.20265e-014 -1.19271e-015
rhumerus -36.6867 -3.49346 -81.3328
rradius 29.3249
rwrist 6.20135
rhand -15.2424 11.6985
rfingers 7.12502
rthumb 10.931 -17.9969
lclavicle -1.20265e-014 -1.19271e-015
lhumerus -39.1701 2.04766 82.3028
lradius 35.8104
lwrist -4.18151
lhand -14.6515 24.421
lfingers 7.12502
lthumb 11.5009 54.0855
rfemur -2.59832 -1.76968 27.4453
rtibia 25.7158
rfoot -20.5758 -5.8884
rtoes 4.7891
lfemur -27.9125 0.215057 -18.7744
ltibia 40.2284
lfoot -14.9988 1.48939
ltoes -12.5499
131
root 14.7154 17.7905 -11.0345 2.0959 -48.262 -1.18444
lowerback 11.4016 1.36951 2.00603
upperback 1.12176 2.08734 0.774667
thorax -5.17519 0.981372 -0.645005
lowerneck -19.281 -3.9495 -10.2118
upperneck 30.7219 -4.69138 6.45751
head 14.1439 -2.44451 3.51356
rclavicle 1.35174e-014 -5.56597e-015
rhumerus -36.7417 -3.66355 -81.2584
rradius 29.2744
rwrist 6.16909
rhand -15.2903 11.6956
rfingers 7.12502
rthumb 10.8848 -18.0023
lclavicle 1.35174e-014 -5.56597e-015
lhumerus -39.3825 2.24349 82.1646
lradius 35.6589
lwrist -4.47
lhand -14.7377 24.202
lfingers 7.12502
lthumb 11.4177 53.8711
rfemur -2.23534 -1.71625 27.4938
rtibia 25.3883
rfoot -20.5627 -5.8982
rtoes 3.71618
lfemur -28.0956 0.197291 -18.7566
ltibia 38.8089
lfoot -15.0363 2.1404
ltoes -14.7126
132
root 14.6806 17.7912 -11.0122 2.2765 -48.3745 -1.33788
lowerback 11.3034 1.42554 2.12295
upperback 1.20582 2.17097 0.779023
thorax -5.02604 1.02211 -0.714672
lowerneck -19.3938 -3.93221 -10.048
upperneck 30.6466 -4.63554 6.26412
head 14.1188 -2.42237 3.41306
rclavicle -2.5842e-014 9.54166e-015
rhumerus -36.5697 -3.98912 -81.1519
rradius 29.0374
rwrist 6.44312
rhand -15.3805 11.6579
rfingers 7.12502
rthumb 10.7978 -18.0446
lclavicle -2.5842e-014 9.54166e-015
lhumerus -39.4979 2.56302 82.0253
lradius 35.4862
lwrist -4.98488
lhand -14.7349 23.977
lfingers 7.12502
lthumb 11.4204 53.646
rfemur -1.97446 -1.47423 27.6542
rtibia 25.0453
rfoot -20.5044 -6.06603
rtoes 2.35521
lfemur -28.3893 0.209213 -18.6433
ltibia 37.3828
lfoot -15.02 2.45646
ltoes -14.9642
133
root 14.6468 17.7918 -10.9853 2.36013 -48.4133 -1.40059
lowerback 11.2753 1.44356 2.3233
upperback 1.2157 2.21617 0.735659
thorax -4.98946 1.04044 -0.878258
lowerneck -19.2649 -3.94108 -10.1724
upperneck 30.5155 -4.64674 6.37079
head 14.0415 -2.42663 3.47347
rclavicle -3.27498e-014 -1.55052e-014
rhumerus -36.5165 -4.54776 -80.9298
rradius 28.7138
rwrist 7.08175
rhand -15.223 11.8287
rfingers 7.12502
rthumb 10.9497 -17.8658
lclavicle -3.27498e-014 -1.55052e-014
lhumerus -39.6848 2.67781 81.9276
lradius 35.2423
lwrist -5.29536
lhand -13.9566 24.2023
lfingers 7.12502
lthumb 12.1709 53.8282
rfemur -1.66072 -1.38455 27.7193
rtibia 24.6776
rfoot -20.4183 -6.07167
rtoes 2.99007
lfemur -28.6662 0.060136 -18.5983
ltibia 35.9819
lfoot -14.8896 2.35746
ltoes -12.2326
134
root 14.6125 17.7914 -10.9544 2.39362 -48.526 -1.48243
lowerback 11.4526 1.44049 2.27434
upperback 1.10801 2.22148 0.867833
thorax -5.20849 1.04162 -0.720816
lowerneck -19.0702 -3.87146 -10.2331
upperneck 30.4884 -4.51976 6.29427
head 13.9732 -2.39306 3.4753
rclavicle 3.74212e-014 -1.11319e-014
rhumerus -36.7001 -4.4767 -80.6727
rradius 28.5459
rwrist 7.44122
rhand -15.0636 12.0888
rfingers 7.12502
rthumb 11.1034 -17.5975
lclavicle 3.74212e-014 -1.11319e-014
lhumerus -40.1256 2.93752 81.9007
lradius 35.0078
lwrist -5.35443
lhand -13.2567 24.1442
lfingers 7.12502
lthumb 12.8457 53.7289
rfemur -1.26446 -1.42479 27.7464
rtibia 24.3133
rfoot -20.2993 -5.75949
rtoes 4.28444
lfemur -28.8964 -0.0601814 -18.521
ltibia 34.6043
lfoot -14.9159 2.35612
ltoes -12.2761
